<?xml version="1.0" encoding="utf-8"?>
<!-- Generator: Adobe Illustrator 23.0.2, SVG Export Plug-In . SVG Version: 6.00 Build 0)  -->
<svg version="1.1" id="Laag_1" xmlns="http://www.w3.org/2000/svg" xmlns:xlink="http://www.w3.org/1999/xlink" x="0px" y="0px"
	 viewBox="0 0 144.57 79.37" style="enable-background:new 0 0 144.57 79.37;" xml:space="preserve">
<style type="text/css">
	.st0{fill:#E30613;}
</style>
<g>
	<path class="st0" d="M46.16,0h15v32.2h0.2c3.4-4.7,9.2-6.4,15.4-6.4c13.8,0,22.2,12.4,22.2,25.9c0,14.7-9.5,25.1-23.9,25.1
		c-6.8,0-12.6-4.1-14.9-7.6h-0.2v6.4h-13.8V0z M71.96,63.6c7.5,0,12-5,12-12.3c0-7.3-4.5-12.3-12-12.3s-12,5-12,12.3
		C59.96,58.6,64.46,63.6,71.96,63.6z"/>
</g>
<g>
	<path class="st0" d="M0.3,51.42c0-11.25,7.5-20.25,19.13-20.25c11.63,0,19.13,9,19.13,20.25s-7.5,20.25-19.13,20.25
		C7.8,71.67,0.3,62.67,0.3,51.42z M28.65,51.42c0-5.62-3.75-9-9.23-9c-5.47,0-9.22,3.38-9.22,9s3.75,9,9.22,9
		C24.9,60.42,28.65,57.04,28.65,51.42z"/>
</g>
<g>
	<path class="st0" d="M138.8,44.71v0.15c3.9,2.48,5.48,6.98,5.48,11.55c0,6.82-3.9,12.97-11.25,12.97
		c-12.6,0-12.82-15.3-12.82-24.67c-3.98,0-6.53,3.3-6.53,7.2c0,3.67,1.65,6.75,4.35,9.15l-6.15,6c-3.9-4.13-5.85-10.13-5.85-16.05
		c0-13.12,6.67-16.65,18.83-16.65h18.53v10.35H138.8z M127.4,47.48c0,3.45,0.3,11.1,5.25,11.1c2.7,0,3.98-2.85,3.98-5.33
		c0-4.42-2.33-8.55-6.83-8.55h-2.4V47.48z"/>
</g>
</svg>
